<svg width="104" height="16" viewBox="0 0 104 16" fill="none" xmlns="http://www.w3.org/2000/svg">
<path d="M0 16V0H12.8V3.2H16V12.8H12.8V16H0ZM6.4 6.4H9.472V3.2H6.4V6.4ZM6.4 12.8H9.472V9.6H6.4V12.8Z" fill="#9C2BAD"/>
<path d="M19.328 16V0H25.728V16H19.328Z" fill="#9C2BAD"/>
<path d="M32.256 16V3.2H29.056V0H41.856V3.2H38.656V16H32.256Z" fill="#9C2BAD"/>
<path d="M45.184 16V12.8H54.784V9.6H48.384V6.4H45.184V3.2H48.384V0H61.184V3.2H51.584V6.4H57.984V9.6H61.184V12.8H57.984V16H45.184Z" fill="#9C2BAD"/>
<path d="M64.512 16V0H70.912V16H64.512Z" fill="#9C2BAD"/>
<path d="M74.24 16V9.6H77.44V6.4H80.64V3.2H74.24V0H87.04V6.4H83.84V9.6H80.64V12.8H87.04V16H74.24Z" fill="#9C2BAD"/>
<path d="M90.368 16V0H103.168V3.2H96.768V6.4H103.168V9.6H96.768V12.8H103.168V16H90.368Z" fill="#9C2BAD"/>
</svg>
