<svg width="97" height="15" viewBox="0 0 97 15" fill="none" xmlns="http://www.w3.org/2000/svg">
<path d="M0 15V0H12V3H15V12H12V15H0ZM6 6H8.88V3H6V6ZM6 12H8.88V9H6V12ZM18.12 15V0H24.12V15H18.12ZM30.24 15V3H27.24V0H39.24V3H36.24V15H30.24ZM42.36 15V12H51.36V9H45.36V6H42.36V3H45.36V0H57.36V3H48.36V6H54.36V9H57.36V12H54.36V15H42.36ZM60.48 15V0H66.48V15H60.48ZM69.6 15V9H72.6V6H75.6V3H69.6V0H81.6V6H78.6V9H75.6V12H81.6V15H69.6ZM84.72 15V0H96.72V3H90.72V6H96.72V9H90.72V12H96.72V15H84.72Z" fill="#9C2BAD"/>
</svg>
